<svg width="30" height="30" viewBox="0 0 30 30" fill="none" xmlns="http://www.w3.org/2000/svg">
<path d="M7.87952 24.741L8.96552 25.3755C10.7968 26.4438 12.8799 27.0045 15 27C17.3734 27 19.6935 26.2962 21.6668 24.9776C23.6402 23.659 25.1783 21.7849 26.0866 19.5922C26.9948 17.3995 27.2324 14.9867 26.7694 12.6589C26.3064 10.3311 25.1635 8.19294 23.4853 6.51471C21.8071 4.83648 19.6689 3.6936 17.3411 3.23057C15.0133 2.76755 12.6005 3.00519 10.4078 3.91344C8.2151 4.82169 6.34096 6.35976 5.02238 8.33315C3.70381 10.3065 3.00002 12.6266 3.00002 15C2.99564 17.1208 3.55693 19.2044 4.62602 21.036L5.25902 22.122L4.27952 25.7235L7.87952 24.741ZM0.00602318 30L2.03402 22.548C0.69746 20.2574 -0.00462244 17.652 2.2903e-05 15C2.2903e-05 6.7155 6.71552 0 15 0C23.2845 0 30 6.7155 30 15C30 23.2845 23.2845 30 15 30C12.3491 30.0045 9.74489 29.303 7.45502 27.9675L0.00602318 30ZM9.58652 7.96199C9.78852 7.94799 9.99002 7.94599 10.191 7.95599C10.272 7.96199 10.353 7.96999 10.434 7.97999C10.6725 8.00699 10.935 8.15249 11.0235 8.35349C11.4705 9.36849 11.9045 10.3885 12.3255 11.4135C12.4185 11.6415 12.363 11.934 12.186 12.219C12.096 12.3645 11.955 12.5685 11.7915 12.777C11.622 12.9945 11.2575 13.3935 11.2575 13.3935C11.2575 13.3935 11.109 13.5705 11.166 13.791C11.187 13.875 11.256 13.9965 11.319 14.0985L11.4075 14.241C11.7915 14.8815 12.3075 15.531 12.9375 16.143C13.1175 16.317 13.293 16.4955 13.482 16.662C14.184 17.2815 14.979 17.787 15.837 18.162L15.8445 18.165C15.972 18.2205 16.0365 18.2505 16.2225 18.33C16.3155 18.369 16.411 18.402 16.509 18.429C16.545 18.439 16.5815 18.4445 16.6185 18.4455C16.704 18.4487 16.7891 18.431 16.8662 18.3939C16.9433 18.3568 17.0102 18.3014 17.061 18.2325C18.1455 16.9185 18.246 16.833 18.2535 16.833V16.836C18.3288 16.7655 18.4185 16.7119 18.5163 16.6791C18.6141 16.6462 18.7179 16.6348 18.8205 16.6455C18.9125 16.6495 19.001 16.6695 19.086 16.7055C19.8825 17.07 21.186 17.6385 21.186 17.6385L22.059 18.03C22.206 18.1005 22.3395 18.267 22.344 18.4275C22.35 18.528 22.359 18.69 22.3245 18.987C22.2765 19.3755 22.1595 19.842 22.0425 20.0865C21.9614 20.2528 21.8552 20.4056 21.7275 20.5395C21.576 20.6983 21.4103 20.8429 21.2325 20.9715C21.1085 21.0635 21.046 21.1085 21.045 21.1065C20.8585 21.2249 20.6668 21.335 20.4705 21.4365C20.0841 21.6412 19.6577 21.7589 19.221 21.7815C18.9435 21.7965 18.666 21.8175 18.387 21.8025C18.375 21.8025 17.535 21.672 17.535 21.672C15.4024 21.1109 13.4302 20.0601 11.775 18.603C11.436 18.3045 11.121 17.9835 10.8 17.664C9.46802 16.3365 8.45852 14.904 7.84502 13.551C7.53377 12.8868 7.36515 12.1648 7.35002 11.4315C7.34438 10.5206 7.6426 9.63385 8.19752 8.91149C8.30702 8.77049 8.41052 8.62349 8.58902 8.45399C8.77802 8.27399 8.89952 8.17799 9.03002 8.11199C9.20407 8.02649 9.39306 7.97555 9.58652 7.96199Z" fill="white"/>
</svg>
